<svg width="18" height="18" viewBox="0 0 18 18" fill="none" xmlns="http://www.w3.org/2000/svg">
<path d="M6.9613 1.00003C6.26542 1.00003 5.58517 1.20635 5.00657 1.59296C4.42797 1.97957 3.97702 2.52909 3.71072 3.172C3.44442 3.81491 3.37471 4.52237 3.51047 5.20488C3.64623 5.88739 3.98136 6.51431 4.47342 7.00638C4.96549 7.49844 5.59241 7.83353 6.27493 7.96929C6.95744 8.10504 7.66485 8.03539 8.30776 7.76908C8.95067 7.50278 9.50019 7.05179 9.8868 6.47319C10.2734 5.89458 10.4798 5.21433 10.4798 4.51845C10.4817 4.05587 10.392 3.59748 10.2158 3.16973C10.0397 2.74199 9.78063 2.35337 9.45353 2.02627C9.12643 1.69917 8.73777 1.44006 8.31002 1.26392C7.88228 1.08778 7.42389 0.998108 6.9613 1.00003V1.00003Z" stroke="#A7B2C9" stroke-miterlimit="10" stroke-linecap="round" stroke-linejoin="round"/>
<path d="M6.98637 9.59708C5.615 9.59708 4.29261 10.107 3.27626 11.0277C2.2599 11.9484 1.6222 13.2141 1.48709 14.5788C1.47963 14.6515 1.48758 14.725 1.51042 14.7944C1.53325 14.8638 1.57045 14.9277 1.61961 14.9818C1.66876 15.0358 1.72875 15.079 1.79568 15.1083C1.86262 15.1377 1.93499 15.1526 2.00808 15.1521H7.06368" stroke="#A7B2C9" stroke-miterlimit="10" stroke-linecap="round" stroke-linejoin="round"/>
<path d="M11.8342 15.3356C13.5168 15.3356 14.8807 13.9716 14.8807 12.289C14.8807 10.6064 13.5168 9.2424 11.8342 9.2424C10.1516 9.2424 8.7876 10.6064 8.7876 12.289C8.7876 13.9716 10.1516 15.3356 11.8342 15.3356Z" stroke="#A7B2C9" stroke-miterlimit="10" stroke-linecap="round" stroke-linejoin="round"/>
<path d="M16.5156 17L13.9945 14.4789" stroke="#A7B2C9" stroke-miterlimit="10" stroke-linecap="round" stroke-linejoin="round"/>
</svg>
