<svg width="17" height="14" viewBox="0 0 17 14" fill="none" xmlns="http://www.w3.org/2000/svg">
<path d="M5.52335 0.509175C4.88502 0.509175 4.26103 0.698432 3.73028 1.05307C3.19952 1.40771 2.78587 1.91177 2.54159 2.50152C2.29731 3.09126 2.23338 3.74021 2.35791 4.36627C2.48244 4.99234 2.78986 5.56742 3.24122 6.01879C3.69259 6.47015 4.26767 6.77753 4.89374 6.90206C5.5198 7.02659 6.16871 6.96269 6.75845 6.71842C7.34819 6.47414 7.85226 6.06044 8.2069 5.52969C8.56154 4.99894 8.75083 4.37495 8.75083 3.73662C8.7526 3.31229 8.6703 2.89181 8.50873 2.49944C8.34716 2.10707 8.10951 1.75059 7.80946 1.45055C7.50942 1.1505 7.1529 0.912811 6.76053 0.751241C6.36816 0.589671 5.94768 0.507412 5.52335 0.509175V0.509175Z" stroke="white" stroke-miterlimit="10" stroke-linecap="round" stroke-linejoin="round"/>
<path d="M10.1135 13.4909C10.1806 13.4913 10.2469 13.4776 10.3083 13.4507C10.3697 13.4238 10.4248 13.3842 10.4699 13.3346C10.515 13.285 10.5491 13.2264 10.57 13.1627C10.591 13.0991 10.5983 13.0316 10.5914 12.9649C10.4675 11.7131 9.88254 10.5521 8.95024 9.70751C8.01794 8.86296 6.80492 8.39523 5.54697 8.39523C4.28901 8.39523 3.07599 8.86296 2.14369 9.70751C1.21139 10.5521 0.626426 11.7131 0.502488 12.9649C0.495651 13.0316 0.502942 13.0991 0.523888 13.1627C0.544833 13.2264 0.57896 13.285 0.62405 13.3346C0.669139 13.3842 0.724163 13.4238 0.785562 13.4507C0.846962 13.4776 0.913351 13.4913 0.980394 13.4909H10.1135Z" stroke="white" stroke-miterlimit="10" stroke-linecap="round" stroke-linejoin="round"/>
<path d="M10.4731 12.2479H16.0195C16.0878 12.2455 16.1549 12.2291 16.2166 12.1997C16.2783 12.1703 16.3333 12.1284 16.3781 12.0769C16.4229 12.0253 16.4567 11.965 16.4772 11.8998C16.4977 11.8347 16.5047 11.7659 16.4975 11.698C16.3885 10.8719 16.0352 10.0972 15.4828 9.47342C14.9304 8.84961 14.2042 8.40513 13.3974 8.19702C12.5906 7.9889 11.74 8.02665 10.9548 8.30544C10.1696 8.58423 9.48565 9.09131 8.99072 9.76162" stroke="white" stroke-miterlimit="10" stroke-linecap="round" stroke-linejoin="round"/>
<path d="M12.5517 1.99154C12.0742 1.99154 11.6075 2.13313 11.2104 2.39841C10.8134 2.6637 10.504 3.04078 10.3212 3.48193C10.1385 3.92308 10.0907 4.40848 10.1838 4.8768C10.277 5.34512 10.5069 5.77532 10.8446 6.11296C11.1822 6.4506 11.6124 6.68054 12.0807 6.77369C12.5491 6.86685 13.0345 6.81904 13.4756 6.63631C13.9168 6.45358 14.2938 6.14412 14.5591 5.74709C14.8244 5.35007 14.966 4.8833 14.966 4.40581C14.9669 4.08851 14.905 3.77418 14.784 3.48087C14.663 3.18756 14.4852 2.92106 14.2608 2.6967C14.0365 2.47234 13.77 2.29457 13.4767 2.17356C13.1834 2.05254 12.869 1.99066 12.5517 1.99154V1.99154Z" stroke="white" stroke-miterlimit="10" stroke-linecap="round" stroke-linejoin="round"/>
</svg>
