<svg width="53" height="50" viewBox="0 0 53 50" fill="none" xmlns="http://www.w3.org/2000/svg">
<g clip-path="url(#clip0_0_12055)">
<path d="M52.7776 26.25C52.7805 25.8297 52.5673 25.4385 52.2155 25.2188H52.2094L52.1873 25.2063L33.8992 14.1813C33.8202 14.1269 33.7382 14.0773 33.6537 14.0325C32.9476 13.6615 32.1088 13.6615 31.4026 14.0325C31.3181 14.0773 31.2361 14.1269 31.1571 14.1813L12.8691 25.2063L12.847 25.2188C12.2881 25.5727 12.1167 26.3212 12.4643 26.8904C12.5667 27.0582 12.7078 27.1979 12.8752 27.2975L31.1633 38.3225C31.2426 38.3764 31.3245 38.426 31.4088 38.4713C32.1149 38.8423 32.9537 38.8423 33.6599 38.4713C33.7442 38.426 33.8261 38.3764 33.9054 38.3225L52.1935 27.2975C52.5588 27.0806 52.7818 26.6807 52.7776 26.25Z" fill="#0A2767"/>
<path d="M15.0011 18.8887H27.0025V30.0925H15.0011V18.8887ZM50.3229 7.49999V2.37499C50.3518 1.09362 49.3559 0.0307045 48.0977 0H16.9539C15.6957 0.0307045 14.6998 1.09362 14.7286 2.37499V7.49999L33.1395 12.5L50.3229 7.49999Z" fill="#0364B8"/>
<path d="M14.7288 7.5H27.0026V18.75H14.7288V7.5Z" fill="#0078D4"/>
<path d="M39.2764 7.5H27.0024V18.75L39.2764 30H50.3229V18.75L39.2764 7.5Z" fill="#28A8EA"/>
<path d="M27.0024 18.75H39.2763V30H27.0024V18.75Z" fill="#0078D4"/>
<path d="M27.0024 30H39.2763V41.25H27.0024V30Z" fill="#0364B8"/>
<path d="M15.0012 30.0924H27.0026V40.2774H15.0012V30.0924Z" fill="#14447D"/>
<path d="M39.2764 30H50.3229V41.25H39.2764V30Z" fill="#0078D4"/>
<path d="M52.2156 27.2288L52.1923 27.2413L33.9042 37.7162C33.8244 37.7662 33.7434 37.8137 33.6587 37.8562C33.3481 38.0069 33.0107 38.0919 32.667 38.1062L31.6679 37.5112C31.5835 37.4681 31.5015 37.4201 31.4224 37.3675L12.8888 26.595H12.8803L12.2739 26.25V47.455C12.2834 48.8697 13.4169 50.009 14.806 50H50.2849C50.3058 50 50.3242 49.99 50.3463 49.99C50.6397 49.9709 50.929 49.9094 51.2055 49.8075C51.3249 49.7559 51.4403 49.6949 51.5504 49.625C51.6326 49.5775 51.7737 49.4738 51.7737 49.4738C52.4025 48.9999 52.7747 48.2516 52.7777 47.455V26.25C52.7773 26.6556 52.5625 27.0296 52.2156 27.2288Z" fill="url(#paint0_linear_0_12055)"/>
<path opacity="0.5" d="M51.7957 26.1662V27.4662L32.673 40.8749L12.8752 26.6037C12.8752 26.5968 12.8697 26.5912 12.8629 26.5912L11.0464 25.4787V24.5412L11.7951 24.5287L13.3784 25.4537L13.4152 25.4662L13.5502 25.5537C13.5502 25.5537 32.1574 36.3662 32.2066 36.3912L32.9184 36.8162C32.9798 36.7912 33.0412 36.7662 33.1148 36.7412C33.1516 36.7162 51.587 26.1537 51.587 26.1537L51.7957 26.1662Z" fill="#0A2767"/>
<path d="M52.2156 27.2288L52.1923 27.2425L33.9042 37.7175C33.8244 37.7675 33.7434 37.815 33.6587 37.8575C32.9485 38.2108 32.1179 38.2108 31.4076 37.8575C31.3235 37.815 31.2416 37.7683 31.1622 37.7175L12.8741 27.2425L12.852 27.2288C12.4989 27.0338 12.2776 26.659 12.2739 26.25V47.455C12.2827 48.8695 13.4158 50.0089 14.8047 50C14.8047 50 14.8047 50 14.8048 50H50.2469C51.6358 50.009 52.7689 48.8696 52.7778 47.4551C52.7778 47.4551 52.7778 47.455 52.7778 47.455V26.25C52.7773 26.6556 52.5625 27.0296 52.2156 27.2288Z" fill="#1490DF"/>
<path opacity="0.1" d="M34.1704 37.5625L33.8967 37.7188C33.8174 37.7702 33.7355 37.8174 33.6512 37.86C33.3497 38.0107 33.0218 38.0991 32.6865 38.12L39.6446 46.5L51.7823 49.4787C52.1148 49.2229 52.3794 48.8864 52.5518 48.5L34.1704 37.5625Z" fill="white"/>
<path opacity="0.05" d="M35.4101 36.8524L33.8967 37.7187C33.8174 37.7701 33.7355 37.8173 33.6512 37.8599C33.3497 38.0106 33.0218 38.099 32.6865 38.1199L35.9465 47.2736L51.7859 49.4749C52.4099 48.9978 52.7773 48.2496 52.7776 47.4549V47.1811L35.4101 36.8524Z" fill="white"/>
<path d="M14.8392 50H50.2432C50.788 50.0028 51.3193 49.8275 51.759 49.5L31.6667 37.5138C31.5822 37.4706 31.5003 37.4226 31.4212 37.37L12.8876 26.5975H12.879L12.2739 26.25V47.3825C12.2725 48.8267 13.421 49.9986 14.8392 50Z" fill="#28A8EA"/>
<path opacity="0.1" d="M29.4574 12.2912V38.9537C29.4552 39.8885 28.8971 40.7288 28.0459 41.0787C27.7822 41.1941 27.4982 41.2537 27.2112 41.2537H12.2739V11.25H14.7287V10H27.2113C28.4512 10.0048 29.4547 11.0284 29.4574 12.2912Z" fill="white"/>
<path opacity="0.2" d="M28.23 13.5412V40.2037C28.2331 40.5057 28.1702 40.8045 28.0459 41.0787C27.705 41.9343 26.8906 42.4957 25.9839 42.4999H12.2739V11.25H25.9839C26.34 11.2463 26.691 11.3368 27.0026 11.5125C27.755 11.8985 28.2297 12.6832 28.23 13.5412Z" fill="white"/>
<path opacity="0.2" d="M28.23 13.5412V37.7037C28.224 38.9659 27.2233 39.989 25.9839 39.9999H12.2739V11.25H25.9839C26.34 11.2463 26.691 11.3368 27.0026 11.5125C27.755 11.8985 28.2297 12.6832 28.23 13.5412Z" fill="white"/>
<path opacity="0.2" d="M27.0026 13.5412V37.7037C27.0013 38.9679 25.9978 39.9938 24.7565 40H12.2739V11.25H24.7565C25.9976 11.2507 27.0033 12.276 27.0026 13.54C27.0026 13.5404 27.0026 13.5408 27.0026 13.5412Z" fill="white"/>
<path d="M2.2498 11.25H24.7528C25.9953 11.25 27.0026 12.2758 27.0026 13.5412V36.4587C27.0026 37.7242 25.9953 38.75 24.7528 38.75H2.2498C1.00726 38.75 0 37.7241 0 36.4587V13.5412C0 12.2758 1.00729 11.25 2.2498 11.25Z" fill="url(#paint1_linear_0_12055)"/>
<path d="M7.0316 20.86C7.5861 19.6568 8.48112 18.6499 9.60177 17.9688C10.8428 17.2451 12.2558 16.8844 13.6853 16.9262C15.0102 16.897 16.3175 17.239 17.4644 17.915C18.5428 18.5699 19.4114 19.5296 19.9646 20.6775C20.5671 21.9423 20.8674 23.3344 20.841 24.74C20.8702 26.2089 20.5612 27.6645 19.9388 28.99C19.3724 30.1789 18.4763 31.1727 17.3613 31.8487C16.1701 32.5454 14.8143 32.8964 13.4411 32.8637C12.0879 32.897 10.7518 32.5511 9.57845 31.8637C8.49072 31.2079 7.61129 30.2472 7.04512 29.0962C6.43902 27.8496 6.13517 26.4732 6.15895 25.0824C6.1337 23.626 6.43202 22.1825 7.0316 20.86ZM9.77113 27.6475C10.0668 28.4081 10.5681 29.0678 11.217 29.55C11.8779 30.0204 12.6693 30.2631 13.4754 30.2425C14.3338 30.277 15.18 30.0261 15.886 29.5275C16.5266 29.0468 17.0148 28.3853 17.2901 27.625C17.5979 26.7758 17.7497 25.8763 17.7381 24.9712C17.7476 24.0575 17.6049 23.1488 17.3159 22.2837C17.0606 21.5027 16.5882 20.814 15.9559 20.3012C15.2676 19.779 14.4238 19.5142 13.5662 19.5512C12.7427 19.5295 11.9335 19.7741 11.255 20.25C10.5952 20.7342 10.0843 21.3997 9.78217 22.1687C9.11189 23.9314 9.1084 25.8848 9.77235 27.65L9.77113 27.6475Z" fill="white"/>
<path d="M39.2764 7.5H50.3229V18.75H39.2764V7.5Z" fill="#50D9FF"/>
</g>
<defs>
<linearGradient id="paint0_linear_0_12055" x1="32.5259" y1="26.25" x2="32.5259" y2="50" gradientUnits="userSpaceOnUse">
<stop stop-color="#35B8F1"/>
<stop offset="1" stop-color="#28A8EA"/>
</linearGradient>
<linearGradient id="paint1_linear_0_12055" x1="4.69089" y1="9.45967" x2="22.7985" y2="40.254" gradientUnits="userSpaceOnUse">
<stop stop-color="#1784D9"/>
<stop offset="0.5" stop-color="#107AD5"/>
<stop offset="1" stop-color="#0A63C9"/>
</linearGradient>
<clipPath id="clip0_0_12055">
<rect width="52.7778" height="50" fill="white"/>
</clipPath>
</defs>
</svg>
