<svg width="18" height="18" viewBox="0 0 18 18" fill="none" xmlns="http://www.w3.org/2000/svg">
<path d="M8.95124 16.9514L11.9026 16.9514C14.664 16.9514 16.9026 14.7128 16.9026 11.9514L16.9026 9" stroke="#444444" stroke-linecap="round" stroke-linejoin="round"/>
<path d="M8.95135 16.9513L5.99999 16.9513C3.23857 16.9513 0.999998 14.7128 0.999998 11.9513L0.999999 6.04864C1 3.28722 3.23857 1.04865 6 1.04865L8.95135 1.04865" stroke="#444444" stroke-linecap="round" stroke-linejoin="round"/>
<path d="M9.31674 11.481L5.8151 12.5582C5.61523 12.6179 5.42834 12.431 5.49064 12.2338L6.56787 8.73212L13.3323 1.96765C13.8411 1.45889 14.6639 1.46149 15.1701 1.96765L16.0786 2.87616C16.5874 3.38492 16.5848 4.20777 16.0786 4.71393L9.31415 11.4784L9.31674 11.481Z" stroke="#444444" stroke-miterlimit="10" stroke-linejoin="round"/>
<path d="M12.6675 2.63196L15.4164 5.38083" stroke="#444444" stroke-miterlimit="10" stroke-linejoin="round"/>
<path d="M6.56738 8.73199L9.31626 11.4809" stroke="#444444" stroke-miterlimit="10" stroke-linejoin="round"/>
</svg>
