<svg width="18" height="16" viewBox="0 0 18 16" fill="none" xmlns="http://www.w3.org/2000/svg">
<path d="M8.27685 9.60296L1.65188 5.70736C1.56808 5.65751 1.49866 5.58673 1.45046 5.50197C1.40226 5.41722 1.37695 5.32142 1.37695 5.22392C1.37695 5.12642 1.40226 5.03058 1.45046 4.94583C1.49866 4.86108 1.56808 4.79033 1.65188 4.74049L8.27685 0.844848C8.4555 0.746924 8.65593 0.695618 8.85966 0.695618C9.06338 0.695618 9.26382 0.746924 9.44247 0.844848L16.0675 4.74049C16.1513 4.79033 16.2207 4.86108 16.2689 4.94583C16.3171 5.03058 16.3424 5.12642 16.3424 5.22392C16.3424 5.32142 16.3171 5.41722 16.2689 5.50197C16.2207 5.58673 16.1513 5.65751 16.0675 5.70736L9.44247 9.60296C9.26382 9.70088 9.06338 9.75223 8.85966 9.75223C8.65593 9.75223 8.4555 9.70088 8.27685 9.60296V9.60296Z" stroke="#A7B2C9" stroke-miterlimit="10" stroke-linecap="round" stroke-linejoin="round"/>
<path d="M14.4759 6.61731L16.0384 7.52734C16.1222 7.57719 16.1916 7.64794 16.2398 7.73269C16.288 7.81744 16.3134 7.91328 16.3134 8.01078C16.3134 8.10828 16.288 8.20408 16.2398 8.28883C16.1916 8.37358 16.1222 8.44437 16.0384 8.49421L9.41345 12.4186C9.23481 12.5165 9.03437 12.5678 8.83065 12.5678C8.62692 12.5678 8.42644 12.5165 8.2478 12.4186L1.62283 8.52294C1.53903 8.47309 1.46965 8.40234 1.42145 8.31759C1.37325 8.23284 1.3479 8.137 1.3479 8.0395C1.3479 7.942 1.37325 7.8462 1.42145 7.76145C1.46965 7.6767 1.53903 7.60591 1.62283 7.55607L3.18532 6.64607" stroke="#A7B2C9" stroke-miterlimit="10" stroke-linecap="round" stroke-linejoin="round"/>
<path d="M14.4759 9.43231L16.0384 10.3423C16.1222 10.3922 16.1916 10.4629 16.2398 10.5477C16.288 10.6324 16.3134 10.7282 16.3134 10.8257C16.3134 10.9232 16.288 11.0191 16.2398 11.1038C16.1916 11.1886 16.1222 11.2593 16.0384 11.3092L9.41345 15.2048C9.23481 15.3027 9.03437 15.354 8.83065 15.354C8.62692 15.354 8.42644 15.3027 8.2478 15.2048L1.62283 11.3092C1.53903 11.2593 1.46965 11.1886 1.42145 11.1038C1.37325 11.0191 1.3479 10.9232 1.3479 10.8257C1.3479 10.7282 1.37325 10.6324 1.42145 10.5477C1.46965 10.4629 1.53903 10.3922 1.62283 10.3423L3.18532 9.43231" stroke="#A7B2C9" stroke-miterlimit="10" stroke-linecap="round" stroke-linejoin="round"/>
</svg>
