<svg width="15" height="14" viewBox="0 0 15 14" fill="none" xmlns="http://www.w3.org/2000/svg">
<path d="M3.32821 4.55078H0.181885V14H3.32821V4.55078Z" fill="#9E48DB"/>
<path d="M13.6557 5.41338C13.3229 5.05405 12.9161 4.7712 12.4633 4.58432C12.0106 4.39745 11.5227 4.31099 11.0334 4.33093C10.6642 4.32612 10.2963 4.37544 9.94142 4.47732C9.64136 4.56224 9.36004 4.70303 9.11221 4.89229C8.74743 5.16438 8.43834 5.50402 8.20175 5.89275V4.54977H5.06641L5.07592 5.00719C5.08226 5.31263 5.08544 6.25332 5.08544 7.82929C5.08544 9.40526 5.07909 11.4616 5.06641 13.9983H8.20322V8.72877C8.194 8.46732 8.22939 8.20621 8.30788 7.95665C8.43714 7.6379 8.64544 7.35732 8.91313 7.14134C9.19925 6.91634 9.55568 6.79968 9.91946 6.81199C10.1523 6.79477 10.3857 6.83793 10.597 6.9373C10.8083 7.03666 10.9903 7.18887 11.1256 7.3792C11.408 7.85173 11.5426 8.39796 11.512 8.94761V13.9975H14.6488V8.58167C14.7299 7.43803 14.3751 6.30608 13.6557 5.41338Z" fill="#9E48DB"/>
<path d="M1.77389 0.00225122C1.30228 -0.0181362 0.841627 0.148037 0.491644 0.464796C0.331462 0.613399 0.204806 0.794447 0.120124 0.995867C0.035442 1.19729 -0.00532031 1.41445 0.000555974 1.63287C-0.00485867 1.84913 0.0346935 2.06417 0.116708 2.26435C0.198722 2.46454 0.321411 2.64551 0.477006 2.79581C0.644824 2.95404 0.842742 3.07692 1.05899 3.15713C1.27525 3.23735 1.50542 3.27327 1.73583 3.26275H1.75705C2.23249 3.28433 2.69706 3.1164 3.04881 2.79581C3.20802 2.64802 3.33346 2.46762 3.41656 2.26692C3.49967 2.06622 3.5385 1.84994 3.53039 1.63287C3.53401 1.41479 3.49274 1.1983 3.40914 0.996848C3.32554 0.795399 3.20139 0.613299 3.04442 0.461868C2.87388 0.304569 2.67366 0.182892 2.45549 0.103969C2.23732 0.0250461 2.00559 -0.00953523 1.77389 0.00225122Z" fill="#9E48DB"/>
</svg>
