<svg width="28" height="28" viewBox="0 0 28 28" fill="none" xmlns="http://www.w3.org/2000/svg">
<path d="M0.0939941 4.3675C0.0939941 2.00731 2.00731 0.0939941 4.3675 0.0939941H23.1709C25.5311 0.0939941 27.4444 2.00731 27.4444 4.3675V23.1709C27.4444 25.5311 25.5311 27.4444 23.1709 27.4444H4.3675C2.00731 27.4444 0.0939941 25.5311 0.0939941 23.1709V4.3675Z" fill="#22223F"/>
<path d="M17.5794 16.7784C17.5794 18.572 16.1069 20.0316 14.2976 20.0316C12.7733 20.0316 11.4433 18.9786 11.1022 17.5147L9.14604 17.8314L9.10718 17.84C9.60808 20.2713 11.7931 22.0349 14.2976 22.0349C17.221 22.0349 19.596 19.6806 19.596 16.7827V16.1534L17.5794 16.4788V16.7827V16.7784Z" fill="url(#paint0_linear_0_11953)"/>
<path d="M9 11.2522C9 14.1502 11.375 16.5045 14.2984 16.5045C17.2218 16.5045 19.5968 14.1502 19.5968 11.2522C19.5968 10.0237 19.1693 8.89366 18.4525 7.99902H19.614V6H14.2984C11.375 6 9 8.35431 9 11.2522ZM17.5802 11.2522C17.5802 13.0458 16.1077 14.5055 14.2984 14.5055C12.4891 14.5055 11.0166 13.0458 11.0166 11.2522C11.0166 9.45869 12.4891 7.99902 14.2984 7.99902C16.1077 7.99902 17.5802 9.45869 17.5802 11.2522Z" fill="url(#paint1_linear_0_11953)"/>
<defs>
<linearGradient id="paint0_linear_0_11953" x1="7.67355" y1="19.0856" x2="68.361" y2="19.0856" gradientUnits="userSpaceOnUse">
<stop stop-color="#00CBEB"/>
<stop offset="0.53" stop-color="#C375FF"/>
<stop offset="1" stop-color="#FC63D7"/>
</linearGradient>
<linearGradient id="paint1_linear_0_11953" x1="9" y1="11.2522" x2="68.3617" y2="11.2522" gradientUnits="userSpaceOnUse">
<stop stop-color="#00CBEB"/>
<stop offset="0.53" stop-color="#C375FF"/>
<stop offset="1" stop-color="#FC63D7"/>
</linearGradient>
</defs>
</svg>
