<svg width="18" height="18" viewBox="0 0 18 18" fill="none" xmlns="http://www.w3.org/2000/svg">
<path d="M8.95136 16.9514L11.9027 16.9514C14.6641 16.9514 16.9027 14.7128 16.9027 11.9514L16.9027 9" stroke="#444444" stroke-linecap="round" stroke-linejoin="round"/>
<path d="M8.95135 16.9513L5.99999 16.9513C3.23857 16.9513 0.999998 14.7128 0.999998 11.9513L0.999999 6.04864C1 3.28722 3.23857 1.04865 6 1.04865L8.95135 1.04865" stroke="#444444" stroke-linecap="round" stroke-linejoin="round"/>
<path d="M9.31662 11.481L5.81498 12.5582C5.61511 12.6179 5.42822 12.431 5.49052 12.2338L6.56774 8.73212L13.3322 1.96765C13.841 1.45889 14.6638 1.46149 15.17 1.96765L16.0785 2.87616C16.5873 3.38492 16.5847 4.20777 16.0785 4.71393L9.31402 11.4784L9.31662 11.481Z" stroke="#444444" stroke-miterlimit="10" stroke-linejoin="round"/>
<path d="M12.6675 2.63196L15.4164 5.38083" stroke="#444444" stroke-miterlimit="10" stroke-linejoin="round"/>
<path d="M6.5675 8.73199L9.31638 11.4809" stroke="#444444" stroke-miterlimit="10" stroke-linejoin="round"/>
</svg>
