<svg width="18" height="18" viewBox="0 0 18 18" fill="none" xmlns="http://www.w3.org/2000/svg">
<path d="M8.95124 16.9512L11.9026 16.9512C14.664 16.9512 16.9026 14.7126 16.9026 11.9512L16.9026 8.99982" stroke="#444444" stroke-linecap="round" stroke-linejoin="round"/>
<path d="M8.95135 16.9513L5.99999 16.9513C3.23857 16.9513 0.999998 14.7127 0.999998 11.9513L0.999999 6.04858C1 3.28716 3.23857 1.04858 6 1.04859L8.95135 1.04859" stroke="#444444" stroke-linecap="round" stroke-linejoin="round"/>
<path d="M9.31674 11.4811L5.8151 12.5583C5.61523 12.618 5.42834 12.4311 5.49064 12.2338L6.56787 8.73218L13.3323 1.96772C13.8411 1.45895 14.6639 1.46155 15.1701 1.96772L16.0786 2.87622C16.5874 3.38498 16.5848 4.20783 16.0786 4.714L9.31415 11.4785L9.31674 11.4811Z" stroke="#444444" stroke-miterlimit="10" stroke-linejoin="round"/>
<path d="M12.6675 2.63184L15.4164 5.38071" stroke="#444444" stroke-miterlimit="10" stroke-linejoin="round"/>
<path d="M6.56738 8.73193L9.31626 11.4808" stroke="#444444" stroke-miterlimit="10" stroke-linejoin="round"/>
</svg>
