<svg width="164" height="81" viewBox="0 0 164 81" fill="none" xmlns="http://www.w3.org/2000/svg">
<rect width="164" height="81" rx="10" fill="#101010"/>
<g clip-path="url(#clip0_0_12029)">
<rect width="50" height="50" transform="translate(15 16)" fill="#101010"/>
<path d="M53.1581 27.842L41.3161 26.5262L26.8424 27.842L25.5264 41L26.8421 54.158L40.0001 55.8027L53.1581 54.158L54.4739 40.6712L53.1581 27.842Z" fill="white"/>
<path d="M32.2404 48.2566C31.2569 47.5921 30.5759 46.6218 30.2041 45.3388L32.4871 44.3981C32.6944 45.1876 33.0561 45.7993 33.5726 46.2336C34.0859 46.6678 34.7109 46.8816 35.4411 46.8816C36.1879 46.8816 36.8294 46.6546 37.3654 46.2006C37.9014 45.7466 38.1714 45.1676 38.1714 44.4671C38.1714 43.7501 37.8884 43.1643 37.3226 42.7106C36.7569 42.2568 36.0464 42.0296 35.1976 42.0296H33.8786V39.7698H35.0626C35.7929 39.7698 36.4081 39.5726 36.9081 39.1778C37.4081 38.7831 37.6581 38.2436 37.6581 37.5561C37.6581 36.9443 37.4344 36.4573 36.9871 36.0923C36.5399 35.7273 35.9739 35.5431 35.2864 35.5431C34.6154 35.5431 34.0824 35.7208 33.6876 36.0793C33.2929 36.4378 33.0066 36.8786 32.8259 37.3983L30.5661 36.4576C30.8654 35.6088 31.4149 34.8588 32.2206 34.2108C33.0266 33.5628 34.0561 33.2371 35.3061 33.2371C36.2304 33.2371 37.0626 33.4148 37.7996 33.7733C38.5364 34.1318 39.1154 34.6286 39.5331 35.2601C39.9509 35.8948 40.1581 36.6056 40.1581 37.3948C40.1581 38.2008 39.9641 38.8816 39.5759 39.4408C39.1876 40.0001 38.7106 40.4276 38.1449 40.7271V40.8618C38.8916 41.1743 39.5001 41.6513 39.9804 42.2928C40.4574 42.9343 40.6974 43.7008 40.6974 44.5956C40.6974 45.4903 40.4704 46.2896 40.0164 46.9903C39.5624 47.6911 38.9341 48.2436 38.1381 48.6448C37.3389 49.0461 36.4409 49.2501 35.4441 49.2501C34.2896 49.2533 33.2239 48.9211 32.2404 48.2566Z" fill="#1A73E8"/>
<path d="M46.2499 36.9277L43.7564 38.7402L42.5032 36.839L46.9999 33.5955H48.7237V48.8947H46.2499V36.9277Z" fill="#1A73E8"/>
<path d="M53.1581 66L65.0001 54.158L59.0791 51.5265L53.1581 54.158L50.5266 60.079L53.1581 66Z" fill="#EA4335"/>
<path d="M24.2104 60.079L26.8419 66H53.1577V54.158H26.8419L24.2104 60.079Z" fill="#34A853"/>
<path d="M18.9472 16C16.7665 16 15 17.7665 15 19.9472V54.1577L20.921 56.7892L26.842 54.1577V27.842H53.1577L55.7892 21.921L53.158 16H18.9472Z" fill="#4285F4"/>
<path d="M15 54.158V62.0527C15 64.2337 16.7665 66 18.9472 66H26.842V54.158H15Z" fill="#188038"/>
<path d="M53.158 27.8419V54.1577H65V27.8419L59.079 25.2104L53.158 27.8419Z" fill="#FBBC04"/>
<path d="M65 27.842V19.9472C65 17.7662 63.2335 16 61.0527 16H53.158V27.842H65Z" fill="#1967D2"/>
</g>
<circle cx="127.5" cy="41" r="14" stroke="#444444"/>
<g clip-path="url(#clip1_0_12029)">
<path d="M127.903 36.9723V45.8334" stroke="#444444" stroke-miterlimit="10"/>
<path d="M123.472 41.4028H132.334" stroke="#444444" stroke-miterlimit="10"/>
</g>
<defs>
<clipPath id="clip0_0_12029">
<rect width="50" height="50" fill="white" transform="translate(15 16)"/>
</clipPath>
<clipPath id="clip1_0_12029">
<rect width="8.86111" height="8.86111" fill="white" transform="translate(123.472 36.9723)"/>
</clipPath>
</defs>
</svg>
