<svg width="119" height="36" viewBox="0 0 119 36" fill="none" xmlns="http://www.w3.org/2000/svg">
<g clip-path="url(#clip0_0_10538)">
<path d="M15.004 26.8146C15.004 29.9512 12.4288 32.504 9.26467 32.504C6.59891 32.504 4.27298 30.6624 3.67639 28.1022L0.255465 28.6562L0.1875 28.6711C1.0635 32.9232 4.88467 36.0074 9.26467 36.0074C14.3772 36.0074 18.5306 31.8901 18.5306 26.8221V25.7217L15.004 26.2906V26.8221V26.8146Z" fill="url(#paint0_linear_0_10538)"/>
<path d="M22.2422 15.5407V26.3355H25.799V15.5407C25.799 12.1646 27.5586 10.7946 30.2168 10.7946C31.1834 10.7946 31.6592 10.9593 31.6592 10.9593L32.7391 7.81523C31.9612 7.62808 31.1155 7.53076 30.2168 7.53076C25.4668 7.53076 22.2497 10.1284 22.2497 15.5407H22.2422Z" fill="url(#paint1_linear_0_10538)"/>
<path d="M43.4597 7.53076C37.5844 7.53076 33.4688 11.5732 33.4688 17.3224C33.4688 23.3636 38.03 26.8146 42.8555 26.8146C46.0726 26.8146 48.8063 25.295 50.0372 22.3305V26.3355H53.292V17.3224C53.292 11.4609 49.2518 7.53076 43.4521 7.53076H43.4597ZM43.4219 23.5507C39.6083 23.5507 37.0634 20.8782 37.0634 17.1727C37.0634 13.4671 39.6083 10.7946 43.4219 10.7946C47.2355 10.7946 49.7805 13.4671 49.7805 17.1727C49.7805 20.8782 47.2355 23.5507 43.4219 23.5507Z" fill="url(#paint2_linear_0_10538)"/>
<path d="M66.8008 7.53076C61.0766 7.53076 56.9609 11.3486 56.9609 17.3224V34.1583H60.5178V23.1091C61.862 25.4821 64.4069 26.8146 67.3974 26.8146C72.223 26.8146 76.7842 23.3636 76.7842 17.285C76.7842 11.5358 72.6685 7.53076 66.7933 7.53076H66.8008ZM66.8386 23.5507C63.0627 23.5507 60.5178 20.8782 60.5178 17.1727C60.5178 13.4671 63.0627 10.7946 66.8386 10.7946C70.6144 10.7946 73.1971 13.4671 73.1971 17.1727C73.1971 20.8782 70.6522 23.5507 66.8386 23.5507Z" fill="url(#paint3_linear_0_10538)"/>
<path d="M90.0313 7.53088C87.2976 7.53088 85.1302 8.75109 83.8616 11.0193V0H80.3047V26.3281H83.8616V16.7985C83.8616 12.8684 86.1422 10.7948 89.4347 10.7948C92.7273 10.7948 95.0079 12.8309 95.0079 16.7985V26.3281H98.5648V16.7985C98.5648 10.383 94.6379 7.53088 90.0389 7.53088H90.0313Z" fill="url(#paint4_linear_0_10538)"/>
<path d="M0 17.1504C0 22.2184 4.15345 26.3356 9.26596 26.3356C14.3785 26.3356 18.5319 22.2184 18.5319 17.1504C18.5319 15.0019 17.7843 13.0256 16.5307 11.461H18.5621V7.96509H9.26596C4.15345 7.96509 0 12.0824 0 17.1504ZM15.0053 17.1504C15.0053 20.287 12.4301 22.8397 9.26596 22.8397C6.10179 22.8397 3.52665 20.287 3.52665 17.1504C3.52665 14.0137 6.10179 11.461 9.26596 11.461C12.4301 11.461 15.0053 14.0137 15.0053 17.1504Z" fill="url(#paint5_linear_0_10538)"/>
<path d="M103.934 13.2277C103.934 13.2277 103.971 13.1978 103.986 13.1753C103.963 13.1903 103.948 13.2127 103.934 13.2277Z" fill="url(#paint6_linear_0_10538)"/>
<path d="M118.974 18.1834C118.974 18.1235 118.967 18.0561 118.959 17.9963C118.952 17.9214 118.944 17.854 118.929 17.7792C118.922 17.7193 118.914 17.6594 118.906 17.5995C118.891 17.5246 118.884 17.4498 118.869 17.3824C118.846 17.2851 118.831 17.1803 118.801 17.083C118.778 16.9857 118.755 16.8883 118.725 16.7985C118.71 16.7461 118.695 16.6937 118.68 16.6413C118.657 16.5664 118.635 16.4916 118.612 16.4242C118.597 16.3793 118.589 16.3419 118.567 16.3044C118.536 16.2146 118.506 16.1323 118.468 16.0499C118.416 15.9301 118.363 15.8029 118.31 15.6906C118.249 15.5708 118.197 15.451 118.136 15.3387C118.136 15.3238 118.129 15.3163 118.121 15.3013C118.098 15.2564 118.068 15.204 118.046 15.1591C118.008 15.0842 117.962 15.0094 117.917 14.942C117.872 14.8671 117.827 14.7998 117.781 14.7249C117.736 14.6575 117.683 14.5827 117.638 14.5153C117.585 14.4479 117.54 14.3805 117.487 14.3057C116.883 13.4897 116.112 12.786 115.229 12.2246C115.531 11.9775 115.818 11.7155 116.075 11.4311C116.112 11.3936 116.143 11.3562 116.18 11.3188C116.248 11.2439 116.309 11.1765 116.369 11.0942C117.17 10.1061 117.683 8.92327 117.811 7.63568C117.811 7.6282 117.811 7.62071 117.811 7.60574C117.827 7.45602 117.834 7.29881 117.834 7.1491C117.834 7.11915 117.834 7.08172 117.834 7.05178C117.834 7.05178 117.834 6.99938 117.834 6.97692C117.849 3.12165 114.428 0 110.23 0C106.031 0 102.61 3.12165 102.61 6.96195C102.61 7.2015 102.625 7.44105 102.648 7.67311C102.663 7.79289 102.678 7.90518 102.7 8.02495C102.723 8.13724 102.738 8.25702 102.768 8.36931C102.806 8.54148 102.852 8.70618 102.904 8.87087C102.987 9.14785 103.093 9.41734 103.214 9.67187C103.267 9.78415 103.32 9.89644 103.38 10.0012C103.554 10.3231 103.75 10.6301 103.969 10.922C104.264 11.3113 104.604 11.6706 104.981 12C105.026 12.0449 105.072 12.0823 105.117 12.1123C105.155 12.1497 105.2 12.1797 105.238 12.2096C105.125 12.277 105.019 12.3518 104.913 12.4267C104.89 12.4417 104.868 12.4566 104.845 12.4716C104.762 12.5315 104.679 12.5914 104.604 12.6513C104.566 12.6812 104.52 12.7112 104.483 12.7486C104.415 12.801 104.354 12.8534 104.286 12.9058C104.249 12.9357 104.211 12.9657 104.181 12.9956C104.12 13.048 104.06 13.1079 103.999 13.1603C103.977 13.1753 103.962 13.1978 103.946 13.2127C103.795 13.355 103.652 13.5047 103.509 13.6544C103.486 13.6769 103.463 13.6993 103.441 13.7218C103.312 13.864 103.191 14.0062 103.078 14.156C103.063 14.1709 103.048 14.1934 103.033 14.2084C103.01 14.2383 102.987 14.2757 102.965 14.3057C102.919 14.3656 102.882 14.4255 102.836 14.4779C102.791 14.5452 102.746 14.6126 102.7 14.68C102.678 14.7174 102.655 14.7548 102.633 14.7923C102.587 14.8671 102.534 14.942 102.489 15.0168C102.436 15.1142 102.383 15.204 102.33 15.3013C102.27 15.4211 102.21 15.5334 102.157 15.6606C102.149 15.6756 102.142 15.6981 102.134 15.713C102.066 15.8553 102.006 16.005 101.953 16.1472C101.945 16.1697 101.938 16.1847 101.93 16.2071C101.892 16.3044 101.862 16.3943 101.832 16.4916C101.832 16.4916 101.832 16.4991 101.832 16.5065C101.802 16.5964 101.779 16.6787 101.749 16.7686C101.711 16.9033 101.673 17.0455 101.643 17.1803C101.643 17.1953 101.643 17.2102 101.636 17.2327C101.621 17.3075 101.605 17.3824 101.59 17.4573C101.59 17.4872 101.583 17.5172 101.575 17.5396C101.575 17.5696 101.568 17.5995 101.56 17.6294C101.56 17.6444 101.56 17.6594 101.56 17.6669C101.56 17.6968 101.553 17.7193 101.545 17.7492C101.538 17.8166 101.53 17.8765 101.522 17.9439C101.522 17.9588 101.522 17.9738 101.522 17.9888C101.522 17.9888 101.522 17.9963 101.522 18.0037C101.507 18.1385 101.5 18.2732 101.492 18.4005C101.492 18.4754 101.492 18.5502 101.492 18.6251C101.492 18.6326 101.492 18.64 101.492 18.6475C101.492 18.6925 101.492 18.7299 101.492 18.7748C101.492 23.1915 105.427 26.7848 110.26 26.7848C115.093 26.7848 119.027 23.1915 119.027 18.7748C119.027 18.5652 119.02 18.3631 119.005 18.1609L118.974 18.1834ZM110.23 3.13662C112.533 3.13662 114.413 4.8509 114.413 6.96195C114.413 6.9844 114.413 7.01435 114.413 7.03681C114.398 7.94261 114.028 8.77355 113.431 9.41734C113.424 9.42483 113.416 9.43231 113.409 9.4398C113.333 9.52215 113.25 9.60449 113.16 9.68684C113.107 9.73175 113.054 9.77667 113.001 9.82158C112.956 9.85901 112.91 9.89644 112.865 9.92639C112.812 9.9713 112.759 10.0012 112.706 10.0387C112.654 10.0761 112.601 10.1135 112.54 10.1435C112.495 10.1734 112.45 10.2034 112.397 10.2258C112.329 10.2633 112.261 10.3007 112.193 10.3306C112.133 10.3606 112.08 10.383 112.019 10.413C111.959 10.4429 111.898 10.4654 111.838 10.4878C111.785 10.5103 111.725 10.5328 111.664 10.5477C111.559 10.5852 111.445 10.6151 111.332 10.645C111.279 10.66 111.226 10.675 111.166 10.6825C111.158 10.6825 111.143 10.6825 111.136 10.69C111.083 10.6974 111.038 10.7124 110.985 10.7199C110.962 10.7199 110.947 10.7274 110.924 10.7274C110.864 10.7349 110.811 10.7424 110.751 10.7498C110.652 10.7648 110.554 10.7648 110.456 10.7723C110.418 10.7723 110.373 10.7723 110.335 10.7723H110.116C107.858 10.7199 106.038 9.02807 106.038 6.95446C106.038 4.88085 107.911 3.12913 110.222 3.12913L110.23 3.13662ZM110.23 23.6706C107.292 23.6706 104.898 21.4847 104.898 18.7973C104.898 18.7299 104.898 18.67 104.898 18.6026C104.898 18.5502 104.898 18.4903 104.906 18.4379C104.906 18.393 104.913 18.3556 104.921 18.3107C104.921 18.2583 104.936 18.2059 104.936 18.1609C104.936 18.116 104.951 18.0711 104.958 18.0262C104.966 17.9813 104.974 17.9289 104.989 17.884C104.996 17.8391 105.011 17.7941 105.019 17.7492C105.026 17.7043 105.041 17.6594 105.057 17.6145C105.072 17.5696 105.079 17.5246 105.094 17.4797C105.109 17.4348 105.125 17.3899 105.14 17.345C105.155 17.3001 105.17 17.2551 105.185 17.2102C105.2 17.1653 105.215 17.1279 105.23 17.083C105.245 17.0381 105.268 16.9931 105.291 16.9557C105.306 16.9183 105.328 16.8734 105.344 16.8359C105.366 16.791 105.389 16.7536 105.412 16.7087C105.434 16.6712 105.449 16.6263 105.472 16.5889C105.495 16.5515 105.517 16.5065 105.54 16.4691C105.563 16.4317 105.585 16.3868 105.615 16.3493C105.638 16.3119 105.668 16.2745 105.691 16.2371C105.721 16.1996 105.744 16.1547 105.774 16.1173C105.797 16.0799 105.827 16.0499 105.857 16.0125C105.887 15.975 105.918 15.9376 105.948 15.8927C105.978 15.8628 106.001 15.8253 106.031 15.7954C106.061 15.758 106.099 15.7205 106.129 15.6831C106.159 15.6532 106.189 15.6232 106.22 15.5933C106.257 15.5558 106.288 15.5184 106.325 15.481C106.356 15.451 106.386 15.4211 106.416 15.3986C106.454 15.3612 106.491 15.3238 106.529 15.2938C106.559 15.2639 106.597 15.2339 106.635 15.2115C106.673 15.1815 106.71 15.1441 106.748 15.1142C106.824 15.0543 106.899 15.0019 106.975 14.942C106.975 14.942 106.99 14.9345 106.997 14.927C107.035 14.8971 107.073 14.8746 107.118 14.8522C107.186 14.7998 107.262 14.7548 107.337 14.7174C107.42 14.665 107.503 14.6201 107.586 14.5752C107.624 14.5527 107.654 14.5377 107.692 14.5228C107.76 14.4853 107.828 14.4554 107.904 14.4255C107.911 14.4255 107.919 14.418 107.934 14.4105C108.002 14.3805 108.077 14.3506 108.145 14.3206C108.221 14.2907 108.304 14.2608 108.379 14.2308C108.621 14.1485 108.863 14.0811 109.119 14.0362C109.286 13.9988 109.459 13.9763 109.633 13.9613C109.784 13.9464 109.943 13.9389 110.101 13.9314C110.116 13.9314 110.131 13.9314 110.146 13.9314H110.169C110.169 13.9314 110.207 13.9314 110.23 13.9314C110.267 13.9314 110.313 13.9314 110.35 13.9314C113.235 13.9913 115.553 16.1547 115.553 18.8047C115.553 21.4548 113.16 23.6781 110.222 23.6781L110.23 23.6706Z" fill="#FC63D7"/>
<path d="M110.112 13.9239C109.953 13.9239 109.794 13.9389 109.643 13.9539C109.47 13.9688 109.296 13.9988 109.13 14.0287C108.873 14.0736 108.624 14.141 108.39 14.2234C108.307 14.2458 108.231 14.2758 108.156 14.3132C108.08 14.3431 108.012 14.3731 107.944 14.403C107.937 14.403 107.922 14.4105 107.914 14.418C107.839 14.4479 107.771 14.4854 107.703 14.5153C107.665 14.5303 107.627 14.5527 107.597 14.5677C107.514 14.6126 107.431 14.6575 107.348 14.7099C107.272 14.7549 107.197 14.7998 107.129 14.8447C107.091 14.8672 107.046 14.8971 107.008 14.9196C107.008 14.9196 106.993 14.927 106.985 14.9345C105.754 15.8029 104.954 17.1504 104.908 18.67H101.472C101.472 18.67 101.472 18.6551 101.472 18.6476C101.472 18.5727 101.472 18.4978 101.472 18.423C101.472 18.2882 101.488 18.1535 101.503 18.0262C101.51 17.9439 101.525 17.8615 101.533 17.7792C101.533 17.7493 101.533 17.7268 101.548 17.6968C101.555 17.622 101.571 17.5546 101.586 17.4798C101.623 17.2477 101.684 17.0156 101.744 16.791C101.767 16.7012 101.797 16.6114 101.827 16.529C101.827 16.529 101.827 16.5216 101.827 16.5141C101.858 16.4167 101.895 16.3269 101.926 16.2296C101.993 16.0425 102.069 15.8628 102.152 15.6831C102.205 15.5634 102.265 15.4436 102.326 15.3238C102.379 15.2265 102.431 15.1366 102.484 15.0393C102.65 14.7624 102.832 14.4929 103.028 14.2308C103.3 13.879 103.602 13.5421 103.934 13.2277C103.949 13.2128 103.964 13.1903 103.987 13.1753C104.048 13.1154 104.108 13.063 104.168 13.0106C104.206 12.9807 104.236 12.9507 104.274 12.9208C104.342 12.8684 104.402 12.816 104.47 12.7636C104.508 12.7262 104.554 12.6962 104.591 12.6663C104.674 12.6064 104.75 12.5465 104.833 12.4866C104.856 12.4642 104.878 12.4567 104.901 12.4417C105.007 12.3668 105.112 12.292 105.226 12.2246C105.324 12.2995 105.414 12.3743 105.513 12.4492C105.565 12.4866 105.611 12.5166 105.664 12.554C105.762 12.6214 105.86 12.6887 105.958 12.7486C106.056 12.8085 106.162 12.8684 106.26 12.9283C106.577 13.1005 106.902 13.2577 107.242 13.3924C107.287 13.4074 107.333 13.4298 107.378 13.4448C107.567 13.5122 107.755 13.5796 107.944 13.632C107.997 13.6469 108.058 13.6619 108.11 13.6769C108.156 13.6919 108.201 13.6993 108.246 13.7068C108.277 13.7143 108.299 13.7218 108.329 13.7293C108.352 13.7293 108.375 13.7443 108.397 13.7443C108.473 13.7592 108.548 13.7742 108.624 13.7892C108.662 13.7967 108.699 13.8041 108.737 13.8116C108.775 13.8116 108.813 13.8266 108.85 13.8341C109.251 13.9015 109.658 13.9389 110.074 13.9389L110.112 13.9239Z" fill="url(#paint7_linear_0_10538)"/>
<path d="M117.851 7.03687C117.828 8.54903 117.285 9.94891 116.371 11.0793C116.31 11.1541 116.25 11.229 116.182 11.3039C116.144 11.3413 116.114 11.3787 116.076 11.4162C115.82 11.7006 115.533 11.9626 115.231 12.2097C114.944 12.03 114.649 11.8653 114.347 11.7156C114.241 11.6632 114.143 11.6183 114.037 11.5734C113.909 11.5135 113.781 11.4611 113.645 11.4162C113.448 11.3413 113.244 11.2664 113.041 11.2065C112.935 11.1766 112.837 11.1392 112.731 11.1167C112.731 11.1167 112.723 11.1167 112.716 11.1167C112.618 11.0943 112.527 11.0643 112.429 11.0419C112.18 10.982 111.93 10.9371 111.674 10.8996C111.598 10.8847 111.523 10.8772 111.44 10.8697C111.409 10.8697 111.379 10.8622 111.349 10.8547C111.258 10.8397 111.168 10.8322 111.077 10.8248C110.934 10.8098 110.783 10.8023 110.639 10.7948C110.556 10.7948 110.473 10.7948 110.39 10.7948H110.375C110.503 10.7948 110.632 10.7798 110.76 10.7649C110.82 10.7649 110.881 10.7499 110.934 10.7424C110.956 10.7424 110.971 10.7424 110.994 10.7349C111.047 10.7274 111.092 10.72 111.145 10.705C111.153 10.705 111.168 10.705 111.175 10.6975C111.228 10.69 111.281 10.675 111.341 10.6601C111.455 10.6376 111.568 10.6002 111.674 10.5628C111.734 10.5478 111.787 10.5253 111.847 10.5029C111.908 10.4804 111.968 10.458 112.029 10.428C112.089 10.4055 112.142 10.3756 112.202 10.3457C112.27 10.3157 112.338 10.2783 112.406 10.2409C112.459 10.2184 112.504 10.1885 112.55 10.1585C112.603 10.1286 112.655 10.0911 112.716 10.0537C112.769 10.0163 112.822 9.98634 112.874 9.94142C112.92 9.91148 112.965 9.87405 113.01 9.83662C113.063 9.7917 113.116 9.74678 113.169 9.70187C113.924 9.02813 114.4 8.09239 114.422 7.05184H117.859L117.851 7.03687Z" fill="url(#paint8_linear_0_10538)"/>
</g>
<defs>
<linearGradient id="paint0_linear_0_10538" x1="-2.31967" y1="30.8496" x2="103.812" y2="30.8496" gradientUnits="userSpaceOnUse">
<stop stop-color="#00CBEB"/>
<stop offset="0.53" stop-color="#C375FF"/>
<stop offset="1" stop-color="#FC63D7"/>
</linearGradient>
<linearGradient id="paint1_linear_0_10538" x1="-2.316" y1="16.9256" x2="103.816" y2="16.9256" gradientUnits="userSpaceOnUse">
<stop stop-color="#00CBEB"/>
<stop offset="0.53" stop-color="#C375FF"/>
<stop offset="1" stop-color="#FC63D7"/>
</linearGradient>
<linearGradient id="paint2_linear_0_10538" x1="-0.000474013" y1="17.1727" x2="103.813" y2="17.1727" gradientUnits="userSpaceOnUse">
<stop stop-color="#00CBEB"/>
<stop offset="0.53" stop-color="#C375FF"/>
<stop offset="1" stop-color="#FC63D7"/>
</linearGradient>
<linearGradient id="paint3_linear_0_10538" x1="-0.0016861" y1="20.8408" x2="103.812" y2="20.8408" gradientUnits="userSpaceOnUse">
<stop stop-color="#00CBEB"/>
<stop offset="0.53" stop-color="#C375FF"/>
<stop offset="1" stop-color="#FC63D7"/>
</linearGradient>
<linearGradient id="paint4_linear_0_10538" x1="-2.31871" y1="13.1678" x2="103.813" y2="13.1678" gradientUnits="userSpaceOnUse">
<stop stop-color="#00CBEB"/>
<stop offset="0.53" stop-color="#C375FF"/>
<stop offset="1" stop-color="#FC63D7"/>
</linearGradient>
<linearGradient id="paint5_linear_0_10538" x1="0" y1="17.1504" x2="103.813" y2="17.1504" gradientUnits="userSpaceOnUse">
<stop stop-color="#00CBEB"/>
<stop offset="0.53" stop-color="#C375FF"/>
<stop offset="1" stop-color="#FC63D7"/>
</linearGradient>
<linearGradient id="paint6_linear_0_10538" x1="103.934" y1="13.2052" x2="103.993" y2="13.2052" gradientUnits="userSpaceOnUse">
<stop stop-color="#290571"/>
<stop offset="1" stop-color="#15063B"/>
</linearGradient>
<linearGradient id="paint7_linear_0_10538" x1="103.104" y1="19.6657" x2="107.532" y2="12.3623" gradientUnits="userSpaceOnUse">
<stop offset="0.19" stop-color="#FC63D7" stop-opacity="0"/>
<stop offset="1" stop-color="#15063B"/>
</linearGradient>
<linearGradient id="paint8_linear_0_10538" x1="116.084" y1="6.09363" x2="112.232" y2="13.2485" gradientUnits="userSpaceOnUse">
<stop offset="0.19" stop-color="#FC63D7" stop-opacity="0"/>
<stop offset="1" stop-color="#15063B"/>
</linearGradient>
<clipPath id="clip0_0_10538">
<rect width="119" height="36" fill="white"/>
</clipPath>
</defs>
</svg>
