<svg width="14" height="18" viewBox="0 0 14 18" fill="none" xmlns="http://www.w3.org/2000/svg">
<path d="M7 1C3.82943 1 1.25 3.59944 1.25 6.79457C1.25 10.7598 6.39569 16.581 6.61477 16.8269C6.82055 17.0579 7.17982 17.0575 7.38523 16.8269C7.60431 16.581 12.75 10.7598 12.75 6.79457C12.7499 3.59944 10.1705 1 7 1ZM7 9.70998C5.40481 9.70998 4.10706 8.40213 4.10706 6.79457C4.10706 5.187 5.40484 3.87919 7 3.87919C8.59516 3.87919 9.89291 5.18704 9.89291 6.7946C9.89291 8.40217 8.59516 9.70998 7 9.70998Z" stroke="#A7B2C9"/>
</svg>
